<?xml version="1.0" encoding="utf-8"?>
<!-- Generator: Adobe Illustrator 25.2.0, SVG Export Plug-In . SVG Version: 6.00 Build 0)  -->
<svg version="1.1" id="Layer_1" xmlns="http://www.w3.org/2000/svg" xmlns:xlink="http://www.w3.org/1999/xlink" x="0px" y="0px"
	 viewBox="0 0 287 236" style="enable-background:new 0 0 287 236;" xml:space="preserve">
<style type="text/css">
	.st0{fill:#35174D;}
	.st1{fill:#18C5FF;}
	.st2{fill:#FDAC9D;}
	.st3{fill:#37164D;}
	.st4{fill:#35164B;}
	.st5{fill:#3A3A47;}
	.st6{fill:#FFBB4E;}
	.st7{fill:#E5E6ED;}
	.st8{fill:#BB7FEF;}
	.st9{fill:#11BDED;}
	.st10{fill:#F39695;}
	.st11{fill:#1C1A23;}
	.st12{fill:#62687E;}
	.st13{fill:#D9DEF1;}
	.st14{fill:#33184B;}
	.st15{fill:#FFFFFF;}
	.st16{fill:#FFAA97;}
	.st17{fill:#F7684E;}
	.st18{fill:#FBA795;}
	.st19{fill:#DD6B66;}
</style>
<g>
	<g>
		<path class="st0" d="M109.21,23.25c-3.02,4.36,1.59,6.95,1.59,6.95s-3.48,5.36,3.04,7.38c0,0-1.3,8.83,5.07,11l38.8-2.9
			c0,0,5.21-30.84-9.56-36.49c-14.77-5.65-32.87,8.11-34.46,12.89C113.7,22.09,110.93,20.77,109.21,23.25z"/>
	</g>
	<g>
		<path class="st1" d="M275.69,168.18c-1.67,17.27-37.05,16.85-42.35,16.85c-5.29,0-8.14-2.49-8.14-2.49l1.6,10.57l2.66,17.55
			h-36.45c0,0-103.93-93.97-103.93-108.24c0-14.26,7.62-19.6,13.69-20.19c6.06-0.59,35.51-8.14,35.96-10.51
			c0.44-2.37-0.76-8.06-0.76-8.06c-17.59,1.62-19.15-15.61-19.15-15.61c-3.88-7.28-4.2-18.69,2.92-15.21
			c7.12,3.48,16.91-0.24,18.36-2.27c1.46-2.02,4.78-3.15,5.18-2.67c0.41,0.49,0,4.61,0,4.61l3.4,0.57c0,0,1.13,5.26,1.21,6.88
			c0.08,1.62,1.3,1.94,1.86,1.94c0.57,0,1.38-7.69,1.38-7.69s6.71-1.13,6.71,5.75s-5.82,7.36-5.82,7.36
			c1.2,12.41,6.21,18.04,11.22,20.62c0,0,0,0,0,0.01c5.23,2.7,10.48,2.07,11.4,2.36c1.81,0.56,19.79-0.49,19.79-0.49
			c20.2-1.53,30.09,15.61,31.9,17.83c1.81,2.23,11.84,14.35,27.44,32.46C271.38,138.22,277.37,150.9,275.69,168.18z"/>
	</g>
	<g>
		<path class="st2" d="M153.97,81.09c-12.39,1.42-15.24-9.37-15.24-9.37c0.44-2.37-0.76-8.06-0.76-8.06
			c-17.59,1.62-19.15-15.61-19.15-15.61c-3.88-7.28-4.2-18.69,2.92-15.21c7.12,3.48,16.91-0.24,18.36-2.27
			c1.46-2.02,4.78-3.15,5.18-2.67c0.41,0.49,0,4.61,0,4.61l3.4,0.57c0,0,1.13,5.26,1.21,6.88c0.08,1.62,1.3,1.94,1.86,1.94
			c0.57,0,1.38-7.69,1.38-7.69s6.71-1.13,6.71,5.75s-5.82,7.36-5.82,7.36c1.2,12.41,6.21,18.04,11.22,20.62c0,0,0,0,0,0.01
			C165.28,68.36,166.14,79.7,153.97,81.09z"/>
	</g>
	<g>
		<path class="st3" d="M226.8,193.11c0,0-13.45-1.53-19.4-3.68c-5.94-2.15-17.33-3.99-17.33-3.99v-17.52l35.56,12.27l-0.25,3.52
			L226.8,193.11z"/>
	</g>
	<g>
		<path class="st0" d="M224.09,153.72c-1.21-0.82-1.23-2.65-0.07-3.55c0.59-0.46,1.33-0.83,2.23-0.96
			c2.67-0.38,12.83-0.92,15.9-1.08c0.6-0.03,1.04,0.44,1.62,0.57c2.18,0.51,5.4,5.3,5.57,9.97c0.23,5.97,0.95,24.9-1.78,25.69
			c-2.39,0.69-15.46,1.59-20.02-0.42c-0.83-0.36-1.36-1.18-1.36-2.08c0.02-4.62,0.12-22.79,0.06-24.43
			C226.2,156.26,225.41,154.63,224.09,153.72z"/>
	</g>
	<g>
		<path class="st4" d="M226.24,149.72c-0.13,0-0.26-0.05-0.36-0.15l-12.96-13.41c-0.19-0.2-0.19-0.52,0.01-0.71
			c0.2-0.19,0.52-0.19,0.71,0.01l12.96,13.41c0.19,0.2,0.19,0.52-0.01,0.71C226.49,149.67,226.36,149.72,226.24,149.72z"/>
	</g>
	<g>
		<rect x="30.58" y="101.63" class="st5" width="165.35" height="109.03"/>
	</g>
	<g>
		<rect x="30.58" y="101.63" class="st6" width="165.35" height="8.59"/>
	</g>
	<g>
		<path class="st7" d="M99.42,134.22H79.57c-0.55,0-1-0.45-1-1s0.45-1,1-1h19.85c0.55,0,1,0.45,1,1S99.97,134.22,99.42,134.22z"/>
	</g>
	<g>
		<path class="st7" d="M104.66,140.61H84.82c-0.55,0-1-0.45-1-1s0.45-1,1-1h19.85c0.55,0,1,0.45,1,1S105.22,140.61,104.66,140.61z"
			/>
	</g>
	<g>
		<path class="st7" d="M95.85,167.6H83.14c-0.55,0-1-0.45-1-1s0.45-1,1-1h12.71c0.55,0,1,0.45,1,1S96.41,167.6,95.85,167.6z"/>
	</g>
	<g>
		<path class="st7" d="M108.19,174.98H83.14c-0.55,0-1-0.45-1-1s0.45-1,1-1h25.05c0.55,0,1,0.45,1,1S108.74,174.98,108.19,174.98z"
			/>
	</g>
	<g>
		<path class="st7" d="M126.62,182.36H88.98c-0.55,0-1-0.45-1-1s0.45-1,1-1h37.64c0.55,0,1,0.45,1,1S127.17,182.36,126.62,182.36z"
			/>
	</g>
	<g>
		<path class="st7" d="M115.26,189.74H93.23c-0.55,0-1-0.45-1-1s0.45-1,1-1h22.03c0.55,0,1,0.45,1,1S115.81,189.74,115.26,189.74z"
			/>
	</g>
	<g>
		<path class="st7" d="M110.43,198.07H88.4c-0.55,0-1-0.45-1-1s0.45-1,1-1h22.03c0.55,0,1,0.45,1,1S110.99,198.07,110.43,198.07z"/>
	</g>
	<g>
		<path class="st7" d="M154.21,198.07h-22.03c-0.55,0-1-0.45-1-1s0.45-1,1-1h22.03c0.55,0,1,0.45,1,1S154.76,198.07,154.21,198.07z"
			/>
	</g>
	<g>
		<path class="st8" d="M143.19,189.74h-22.03c-0.55,0-1-0.45-1-1s0.45-1,1-1h22.03c0.55,0,1,0.45,1,1S143.74,189.74,143.19,189.74z"
			/>
	</g>
	<g>
		<path class="st8" d="M147.57,126.72h-22.03c-0.55,0-1-0.45-1-1s0.45-1,1-1h22.03c0.55,0,1,0.45,1,1S148.12,126.72,147.57,126.72z"
			/>
	</g>
	<g>
		<path class="st9" d="M140.68,182.36h-8.25c-0.55,0-1-0.45-1-1s0.45-1,1-1h8.25c0.55,0,1,0.45,1,1S141.24,182.36,140.68,182.36z"/>
	</g>
	<g>
		<path class="st9" d="M124.93,198.07h-8.25c-0.55,0-1-0.45-1-1s0.45-1,1-1h8.25c0.55,0,1,0.45,1,1S125.48,198.07,124.93,198.07z"/>
	</g>
	<g>
		<path class="st7" d="M160.27,174.98h-45.01c-0.55,0-1-0.45-1-1s0.45-1,1-1h45.01c0.55,0,1,0.45,1,1S160.82,174.98,160.27,174.98z"
			/>
	</g>
	<g>
		<path class="st7" d="M114.66,147.19H94.82c-0.55,0-1-0.45-1-1s0.45-1,1-1h19.85c0.55,0,1,0.45,1,1S115.22,147.19,114.66,147.19z"
			/>
	</g>
	<g>
		<path class="st7" d="M173.46,126.72h-19.85c-0.55,0-1-0.45-1-1s0.45-1,1-1h19.85c0.55,0,1,0.45,1,1S174.02,126.72,173.46,126.72z"
			/>
	</g>
	<g>
		<path class="st7" d="M108.19,153.91H94.82c-0.55,0-1-0.45-1-1s0.45-1,1-1h13.37c0.55,0,1,0.45,1,1S108.74,153.91,108.19,153.91z"
			/>
	</g>
	<g>
		<path class="st7" d="M137.77,160.21H94.82c-0.55,0-1-0.45-1-1s0.45-1,1-1h42.96c0.55,0,1,0.45,1,1S138.33,160.21,137.77,160.21z"
			/>
	</g>
	<g>
		<path class="st7" d="M155.19,134.22h-31.72c-0.55,0-1-0.45-1-1s0.45-1,1-1h31.72c0.55,0,1,0.45,1,1S155.74,134.22,155.19,134.22z"
			/>
	</g>
	<g>
		<path class="st9" d="M188.13,134.22h-27.86c-0.55,0-1-0.45-1-1s0.45-1,1-1h27.86c0.55,0,1,0.45,1,1S188.68,134.22,188.13,134.22z"
			/>
	</g>
	<g>
		<path class="st9" d="M133.2,204.39h-27.86c-0.55,0-1-0.45-1-1s0.45-1,1-1h27.86c0.55,0,1,0.45,1,1S133.75,204.39,133.2,204.39z"/>
	</g>
	<g>
		<path class="st10" d="M117.92,134.32h-11.75c-0.55,0-1-0.45-1-1s0.45-1,1-1h11.75c0.55,0,1,0.45,1,1S118.48,134.32,117.92,134.32z
			"/>
	</g>
	<g>
		<path class="st10" d="M132.55,147.19H120.8c-0.55,0-1-0.45-1-1s0.45-1,1-1h11.75c0.55,0,1,0.45,1,1S133.1,147.19,132.55,147.19z"
			/>
	</g>
	<g>
		<path class="st10" d="M147.53,153.91h-34.13c-0.55,0-1-0.45-1-1s0.45-1,1-1h34.13c0.55,0,1,0.45,1,1S148.08,153.91,147.53,153.91z
			"/>
	</g>
	<g>
		<path class="st10" d="M183.99,153.91h-15.67c-0.55,0-1-0.45-1-1s0.45-1,1-1h15.67c0.55,0,1,0.45,1,1S184.54,153.91,183.99,153.91z
			"/>
	</g>
	<g>
		<path class="st6" d="M163.54,153.91h-12.29c-0.55,0-1-0.45-1-1s0.45-1,1-1h12.29c0.55,0,1,0.45,1,1S164.09,153.91,163.54,153.91z"
			/>
	</g>
	<g>
		<path class="st6" d="M100.89,204.39H88.59c-0.55,0-1-0.45-1-1s0.45-1,1-1h12.29c0.55,0,1,0.45,1,1S101.44,204.39,100.89,204.39z"
			/>
	</g>
	<g>
		<path class="st6" d="M134.92,120.22h-12.29c-0.55,0-1-0.45-1-1s0.45-1,1-1h12.29c0.55,0,1,0.45,1,1S135.48,120.22,134.92,120.22z"
			/>
	</g>
	<rect x="30.58" y="101.62" class="st11" width="40.73" height="109.03"/>
	<rect x="30.58" y="137.98" width="40.73" height="8.21"/>
	<rect x="34.77" y="130.14" class="st12" width="4.82" height="4.82"/>
	<rect x="39.39" y="139.61" class="st12" width="4.82" height="4.82"/>
	<rect x="46.46" y="148.09" class="st12" width="4.82" height="4.82"/>
	<rect x="46.46" y="156.14" class="st12" width="4.82" height="4.82"/>
	<rect x="46.46" y="164.19" class="st12" width="4.82" height="4.82"/>
	<rect x="46.46" y="172.24" class="st12" width="4.82" height="4.82"/>
	<rect x="46.46" y="180.29" class="st12" width="4.82" height="4.82"/>
	<g>
		<path class="st13" d="M127.78,77.05v48.44H25.81V77.05c0-4,3.24-7.24,7.24-7.24h87.49C124.54,69.81,127.78,73.05,127.78,77.05z"/>
	</g>
	<g>
		<path class="st14" d="M127.78,77.05v10.33H25.81V77.05c0-4,3.24-7.24,7.24-7.24h87.49C124.54,69.81,127.78,73.05,127.78,77.05z"/>
	</g>
	<g>
		<path class="st15" d="M67.65,94.2H44.63c-0.4,0-0.72,0.32-0.72,0.72v23.02c0,0.4,0.32,0.72,0.72,0.72h23.02
			c0.4,0,0.72-0.32,0.72-0.72V94.91C68.37,94.52,68.05,94.2,67.65,94.2z M66.94,95.63v4.35H45.35v-4.35H66.94z M45.35,117.21v-15.81
			h21.59v15.81H45.35z"/>
		<path class="st15" d="M50.41,110h7.16c0.4,0,0.72-0.32,0.72-0.72c0-0.4-0.32-0.72-0.72-0.72h-7.16c-0.4,0-0.72,0.32-0.72,0.72
			C49.7,109.68,50.02,110,50.41,110z"/>
		<path class="st15" d="M50.41,112.87h5.73c0.4,0,0.72-0.32,0.72-0.72s-0.32-0.72-0.72-0.72h-5.73c-0.4,0-0.72,0.32-0.72,0.72
			S50.02,112.87,50.41,112.87z"/>
		<path class="st15" d="M57.58,114.3h-7.16c-0.4,0-0.72,0.32-0.72,0.72s0.32,0.72,0.72,0.72h7.16c0.4,0,0.72-0.32,0.72-0.72
			S57.97,114.3,57.58,114.3z"/>
		<path class="st15" d="M52.77,106.93c0.28,0.28,0.73,0.28,1.01,0c0.28-0.28,0.28-0.73,0-1.01l-0.93-0.93l0.93-0.93
			c0.28-0.28,0.28-0.73,0-1.01c-0.28-0.28-0.73-0.28-1.01,0l-1.43,1.43c-0.28,0.28-0.28,0.73,0,1.01L52.77,106.93z"/>
		<path class="st15" d="M59.43,104.99l-0.92,0.92c-0.28,0.28-0.28,0.73,0,1.01c0.28,0.28,0.73,0.28,1.01,0l1.43-1.43
			c0.28-0.28,0.28-0.73,0-1.01l-1.44-1.44c-0.28-0.28-0.73-0.28-1.01,0c-0.28,0.28-0.28,0.73,0,1.01L59.43,104.99z"/>
		<path class="st15" d="M55.11,107.06c0.35,0.18,0.78,0.03,0.96-0.32l1.43-2.87c0.18-0.35,0.03-0.78-0.32-0.96
			c-0.35-0.18-0.78-0.03-0.96,0.32l-1.43,2.87C54.61,106.45,54.75,106.88,55.11,107.06L55.11,107.06z"/>
		<path class="st15" d="M61.87,108.57h-1.43c-0.4,0-0.72,0.32-0.72,0.72c0,0.4,0.32,0.72,0.72,0.72h1.43c0.4,0,0.72-0.32,0.72-0.72
			C62.59,108.89,62.27,108.57,61.87,108.57z"/>
		<path class="st15" d="M61.87,111.44h-2.87c-0.4,0-0.72,0.32-0.72,0.72s0.32,0.72,0.72,0.72h2.87c0.4,0,0.72-0.32,0.72-0.72
			S62.27,111.44,61.87,111.44z"/>
		<path class="st15" d="M61.87,114.3h-1.43c-0.4,0-0.72,0.32-0.72,0.72s0.32,0.72,0.72,0.72h1.43c0.4,0,0.72-0.32,0.72-0.72
			S62.27,114.3,61.87,114.3z"/>
		<circle class="st15" cx="64.74" cy="97.82" r="0.72"/>
		<circle class="st15" cx="61.87" cy="97.82" r="0.72"/>
		<circle class="st15" cx="59.01" cy="97.82" r="0.72"/>
	</g>
	<g>
		<path class="st16" d="M188.77,115c-0.83-0.07-1.25-1.04-0.74-1.7c0.98-1.27,2.85-2.7,6.04-1.92c0,0,5.99-1.46,6.97,5.35
			c0.97,6.8,2.11,9.23,2.27,16.85c0.16,7.61-3.4,19.92,11.82,19.6l7.94,0.01c0,0,3.08-0.33,3.24,6.15
			c0.14,5.56,0.64,18.86,0.77,22.53c0.02,0.54-0.37,1.01-0.91,1.09c-3.79,0.53-17.93,2.44-22.54,2.3
			c-5.35-0.16-18.95-4.7-18.14-20.73c0.81-16.04,2.11-34.18,0.97-37.9c-1.11-3.66-2.23-6.85,1.43-8.19
			c0.14-0.05,0.28-0.07,0.43-0.06c0.89,0.06,4.05,0.74,4.46,7.12c0.49,7.45,1.78,18.47,2.75,17.66c0.97-0.81,0.16-18.47-0.65-20.73
			C194.12,120.26,196.06,115.59,188.77,115z"/>
	</g>
	<g>
		<path class="st17" d="M189.02,189.53v32.3c0,4.2-3.41,7.61-7.61,7.61h-32.3c-4.2,0-7.6-3.41-7.6-7.61v-32.3c0-4.2,3.4-7.6,7.6-7.6
			h32.3C185.61,181.93,189.02,185.33,189.02,189.53z"/>
	</g>
	<g>
		<path class="st6" d="M189.02,189.53v11.6c-8.29-2.85-14.4,0.48-17.61,4.55c-3.21,4.07-7.24,12.2-15.56,8.99
			c-8.31-3.2-14.34,1.31-14.34,1.31v-26.45c0-4.2,3.4-7.6,7.6-7.6h32.3C185.61,181.93,189.02,185.33,189.02,189.53z"/>
	</g>
	<g>
		<circle class="st15" cx="155.85" cy="198.95" r="8.79"/>
	</g>
	<g>
		<path class="st15" d="M119.14,84.6H48.24c-3.22,0-5.83-2.61-5.83-5.83v0c0-3.22,2.61-5.83,5.83-5.83h70.89
			c3.22,0,5.83,2.61,5.83,5.83v0C124.96,82,122.35,84.6,119.14,84.6z"/>
	</g>
	<g>
		<path class="st15" d="M34.77,84.6L34.77,84.6c-3.22,0-5.83-2.61-5.83-5.83v0c0-3.22,2.61-5.83,5.83-5.83h0
			c3.22,0,5.83,2.61,5.83,5.83v0C40.6,82,37.99,84.6,34.77,84.6z"/>
	</g>
	<g>
		<path class="st15" d="M119.27,102.37h-39.7c-0.41,0-0.75-0.34-0.75-0.75s0.34-0.75,0.75-0.75h39.7c0.41,0,0.75,0.34,0.75,0.75
			S119.68,102.37,119.27,102.37z"/>
	</g>
	<g>
		<path class="st15" d="M105.67,97.99H79.32c-0.27,0-0.5-0.34-0.5-0.75s0.22-0.75,0.5-0.75h26.35c0.27,0,0.5,0.34,0.5,0.75
			S105.94,97.99,105.67,97.99z"/>
	</g>
	<g>
		<path class="st15" d="M89.99,106.42H79.57c-0.41,0-0.75-0.34-0.75-0.75s0.34-0.75,0.75-0.75h10.43c0.41,0,0.75,0.34,0.75,0.75
			S90.41,106.42,89.99,106.42z"/>
	</g>
	<g>
		<path class="st15" d="M99.06,117.96H80.18c-0.75,0-1.36-0.34-1.36-0.75s0.61-0.75,1.36-0.75h18.88c0.75,0,1.36,0.34,1.36,0.75
			S99.81,117.96,99.06,117.96z"/>
	</g>
	<g>
		<path class="st15" d="M119.27,106.42h-26.2c-0.41,0-0.75-0.34-0.75-0.75s0.34-0.75,0.75-0.75h26.2c0.41,0,0.75,0.34,0.75,0.75
			S119.68,106.42,119.27,106.42z"/>
	</g>
	<g>
		<path class="st15" d="M119.27,110.97h-39.7c-0.41,0-0.75-0.34-0.75-0.75s0.34-0.75,0.75-0.75h39.7c0.41,0,0.75,0.34,0.75,0.75
			S119.68,110.97,119.27,110.97z"/>
	</g>
	<g>
		<path class="st15" d="M101.49,114.39H79.24c-0.23,0-0.42-0.34-0.42-0.75s0.19-0.75,0.42-0.75h22.25c0.23,0,0.42,0.34,0.42,0.75
			S101.72,114.39,101.49,114.39z"/>
	</g>
	<g>
		<path class="st15" d="M119.5,114.39h-15.83c-0.17,0-0.3-0.34-0.3-0.75s0.13-0.75,0.3-0.75h15.83c0.17,0,0.3,0.34,0.3,0.75
			S119.66,114.39,119.5,114.39z"/>
	</g>
	<g>
		<path class="st18" d="M18.9,67.56c-5.53-0.11-7.37,3.81-7.37,13.65s0,15.53,0,15.53s-3.23,8.6,3.69,10.9c0,0-1.84,6.14,3.69,9.06
			c0,0-5.21,8.62,11.68,16.61v-7.83h-4.77c0,0,4.76-3.25,12.13-4.94c7.37-1.69,8.29-7.83,5.68-9.52c-2.61-1.69-10.9-0.46-10.9-0.46
			s12.33-5.84,12.23-11.98s-7.16-4.76-7.16-4.76s3.38-5.07,1.69-8.14s-10.9-3.23-16.13,0.61l0.46-10.6
			C23.81,75.7,23.22,67.65,18.9,67.56z"/>
	</g>
	<g>
		<rect x="42.42" y="131.88" class="st12" width="13.72" height="1.33"/>
	</g>
	<g>
		<rect x="47.04" y="141.35" class="st12" width="9.7" height="1.33"/>
	</g>
	<g>
		<rect x="54.1" y="149.83" class="st12" width="10.5" height="1.33"/>
	</g>
	<g>
		<rect x="54.1" y="157.88" class="st12" width="10.5" height="1.33"/>
	</g>
	<g>
		<rect x="54.1" y="165.93" class="st12" width="10.5" height="1.33"/>
	</g>
	<g>
		<rect x="54.1" y="173.98" class="st12" width="10.5" height="1.33"/>
	</g>
	<g>
		<rect x="54.1" y="182.03" class="st12" width="10.5" height="1.33"/>
	</g>
	<g>
		<rect x="39.39" y="189.61" class="st12" width="4.82" height="4.82"/>
	</g>
	<g>
		<rect x="47.04" y="191.35" class="st12" width="13.72" height="1.33"/>
	</g>
	<g>
		<rect x="39.39" y="197.07" class="st12" width="4.82" height="4.82"/>
	</g>
	<g>
		<rect x="47.04" y="198.81" class="st12" width="13.72" height="1.33"/>
	</g>
	<g>
		<path class="st19" d="M12.37,97.04c-0.09,0-0.18-0.03-0.26-0.09c-0.2-0.15-0.24-0.45-0.1-0.66c0.21-0.31,5.29-7.56,10.72-9.96
			c0.23-0.1,0.49,0.01,0.58,0.25c0.09,0.24-0.01,0.51-0.24,0.61c-5.2,2.29-10.29,9.57-10.34,9.64
			C12.65,96.97,12.51,97.04,12.37,97.04z"/>
	</g>
	<g>
		<path class="st19" d="M15.21,108.15c-0.12,0-0.25-0.05-0.35-0.14c-0.2-0.19-0.21-0.51-0.02-0.71
			c0.53-0.56,13.15-13.67,22.92-13.98c0.28-0.04,0.51,0.21,0.52,0.48c0.01,0.28-0.21,0.51-0.48,0.52
			c-9.36,0.3-22.1,13.53-22.23,13.67C15.47,108.1,15.34,108.15,15.21,108.15z"/>
	</g>
	<g>
		<path class="st19" d="M18.9,117.21c-0.13,0-0.26-0.05-0.36-0.15c-0.19-0.2-0.19-0.51,0.01-0.71c0.2-0.19,4.98-4.73,14.09-6.28
			c0.27-0.05,0.53,0.14,0.58,0.41c0.05,0.27-0.14,0.53-0.41,0.58c-8.78,1.49-13.51,5.96-13.56,6.01
			C19.15,117.16,19.02,117.21,18.9,117.21z"/>
	</g>
	<g>
		<path class="st0" d="M133.96,41.75c-0.16,0-0.31-0.04-0.46-0.11c-0.48-0.25-0.68-0.84-0.44-1.33c0.09-0.18,2.26-4.33,9.42-1.68
			c0.52,0.19,0.78,0.77,0.59,1.28c-0.19,0.52-0.76,0.78-1.29,0.59c-5.39-2-6.88,0.6-6.94,0.71
			C134.67,41.56,134.32,41.75,133.96,41.75z"/>
	</g>
	<g>
		<path class="st0" d="M126.62,42.83c-0.31,0-0.62-0.15-0.82-0.42c-2.47-3.52-5.7-1.95-6.06-1.76c-0.48,0.26-1.09,0.08-1.35-0.41
			c-0.26-0.48-0.08-1.09,0.4-1.35c1.75-0.95,5.8-1.68,8.64,2.37c0.32,0.45,0.21,1.08-0.24,1.39
			C127.02,42.77,126.82,42.83,126.62,42.83z"/>
	</g>
	<g>
		<path class="st19" d="M133.18,55.52c-0.01,0-0.02,0-0.03,0c-0.47-0.03-2.83-0.22-3.46-1.37c-0.16-0.29-0.28-0.77,0.07-1.39
			c0.9-1.61,0.77-7.36-1.23-8.56c-0.24-0.14-0.31-0.45-0.17-0.69c0.14-0.24,0.45-0.31,0.69-0.17c2.6,1.56,2.73,7.86,1.59,9.91
			c-0.15,0.27-0.09,0.38-0.06,0.43c0.27,0.49,1.74,0.8,2.64,0.85c0.28,0.02,0.49,0.25,0.47,0.53
			C133.66,55.32,133.44,55.52,133.18,55.52z"/>
	</g>
	<g>
		<path class="st19" d="M133.82,58.7c-1.26,0-2.19-0.3-2.21-0.3c-0.26-0.09-0.41-0.37-0.32-0.63c0.09-0.26,0.37-0.41,0.63-0.32
			c0.16,0.05,3.99,1.25,6.07-1.8c0.16-0.23,0.47-0.28,0.7-0.13c0.23,0.16,0.29,0.47,0.13,0.7C137.42,58.25,135.38,58.7,133.82,58.7z
			"/>
	</g>
	<g>
		<path class="st4" d="M125.96,50.12c-0.69,0-1.3-0.72-1.48-1.76c-0.19-1.12,0.23-2.06,0.98-2.19c0.4-0.07,0.81,0.12,1.13,0.51
			c0.25,0.32,0.44,0.75,0.52,1.23c0.19,1.12-0.23,2.06-0.98,2.19C126.07,50.11,126.01,50.12,125.96,50.12z M125.62,47.16
			c-0.07,0.04-0.26,0.42-0.15,1.03c0.1,0.61,0.4,0.91,0.5,0.92c0.07-0.04,0.26-0.42,0.15-1.03
			C126.01,47.47,125.71,47.17,125.62,47.16z"/>
	</g>
	<g>
		<path class="st4" d="M138.57,48.95c-0.69,0-1.3-0.72-1.48-1.76c-0.19-1.12,0.23-2.06,0.98-2.19c0.4-0.06,0.81,0.12,1.13,0.51
			c0.25,0.32,0.44,0.75,0.52,1.23c0.19,1.12-0.23,2.06-0.98,2.19C138.68,48.94,138.62,48.95,138.57,48.95z M138.23,45.99
			c-0.07,0.04-0.26,0.42-0.15,1.03c0.1,0.61,0.4,0.91,0.5,0.92c0.07-0.04,0.26-0.42,0.15-1.03C138.62,46.3,138.32,46,138.23,45.99z"
			/>
	</g>
	<g>
		<path class="st15" d="M139.1,55.12c-4.09,0-7.43-3.33-7.43-7.43c0-4.09,3.33-7.43,7.43-7.43s7.43,3.33,7.43,7.43
			C146.53,51.78,143.2,55.12,139.1,55.12z M139.1,41.26c-3.54,0-6.43,2.88-6.43,6.43s2.88,6.43,6.43,6.43s6.43-2.88,6.43-6.43
			S142.65,41.26,139.1,41.26z"/>
	</g>
	<g>
		<path class="st15" d="M121.34,56.18c-4.09,0-7.43-3.33-7.43-7.43c0-4.09,3.33-7.43,7.43-7.43c4.09,0,7.42,3.33,7.42,7.43
			C128.76,52.85,125.43,56.18,121.34,56.18z M121.34,42.33c-3.54,0-6.43,2.88-6.43,6.43s2.88,6.43,6.43,6.43s6.42-2.88,6.42-6.43
			S124.88,42.33,121.34,42.33z"/>
	</g>
	<g>
		
			<rect x="128.44" y="47.08" transform="matrix(0.9979 -0.0644 0.0644 0.9979 -2.7961 8.4833)" class="st15" width="3.33" height="1"/>
	</g>
	<g>
		
			<rect x="142.7" y="39.03" transform="matrix(0.5865 -0.81 0.81 0.5865 29.7084 137.2522)" class="st15" width="13.15" height="1"/>
	</g>
	<g>
		<path class="st19" d="M155.89,44.27c-0.1,0-0.2-0.03-0.29-0.09c-0.23-0.16-0.28-0.47-0.13-0.7c0.98-1.41,1.34-2.69,1.08-3.81
			c-0.33-1.43-1.6-2.14-1.61-2.14c-0.24-0.13-0.33-0.44-0.2-0.68c0.13-0.24,0.43-0.33,0.68-0.2c0.07,0.04,1.66,0.92,2.1,2.78
			c0.34,1.41-0.08,2.97-1.23,4.63C156.21,44.19,156.05,44.27,155.89,44.27z"/>
	</g>
	<g>
		<path class="st19" d="M154.76,41.26c0,0-0.01,0-0.01,0c-0.28-0.01-0.49-0.24-0.49-0.51c0-0.15,0.06-1.44,0.89-1.99
			c0.3-0.2,0.82-0.37,1.57-0.07c0.26,0.1,0.38,0.39,0.28,0.65c-0.1,0.26-0.4,0.38-0.65,0.28c-0.28-0.11-0.5-0.12-0.65-0.02
			c-0.32,0.21-0.43,0.89-0.44,1.18C155.25,41.05,155.03,41.26,154.76,41.26z"/>
	</g>
</g>
</svg>
